<?xml version="1.0" encoding="UTF-8" standalone="no"?>
<!-- Created with Inkscape (http://www.inkscape.org/) -->

<svg
   xmlns:dc="http://purl.org/dc/elements/1.1/"
   xmlns:cc="http://creativecommons.org/ns#"
   xmlns:rdf="http://www.w3.org/1999/02/22-rdf-syntax-ns#"
   xmlns:svg="http://www.w3.org/2000/svg"
   xmlns="http://www.w3.org/2000/svg"
   xmlns:xlink="http://www.w3.org/1999/xlink"
   xmlns:sodipodi="http://sodipodi.sourceforge.net/DTD/sodipodi-0.dtd"
   xmlns:inkscape="http://www.inkscape.org/namespaces/inkscape"
   inkscape:output_extension="org.inkscape.output.svg.inkscape"
   sodipodi:docname="board_v1_merged.svg"
   version="1.0"
   inkscape:version="0.48.4 r9939"
   sodipodi:version="0.32"
   id="svg2"
   height="990"
   width="765">
  <sodipodi:namedview
     id="base"
     pagecolor="#ffffff"
     bordercolor="#666666"
     borderopacity="1.0"
     gridtolerance="10000"
     guidetolerance="10"
     objecttolerance="10"
     inkscape:pageopacity="0.0"
     inkscape:pageshadow="2"
     inkscape:zoom="1.8101934"
     inkscape:cx="92.016677"
     inkscape:cy="-7.3978112"
     inkscape:document-units="in"
     inkscape:current-layer="layer1"
     width="765px"
     height="990px"
     gridanglex="0.33333333in"
     gridanglez="0.33333333in"
     grid_units="in"
     inkscape:window-width="1535"
     inkscape:window-height="876"
     inkscape:window-x="65"
     inkscape:window-y="24"
     showgrid="false"
     inkscape:window-maximized="1"
     showguides="true"
     inkscape:guide-bbox="true">
    <inkscape:grid
       empspacing="5"
       empopacity="0.38"
       opacity="0.15"
       empcolor="#3f3fff"
       color="#3f3fff"
       spacingy="0.011111111in"
       spacingx="0.011111111in"
       originy="0px"
       originx="0px"
       type="xygrid"
       id="GridFromPre046Settings" />
  </sodipodi:namedview>
  <defs
     id="defs4" />
  <metadata
     id="metadata7">
    <rdf:RDF>
      <cc:Work
         rdf:about="">
        <dc:format>image/svg+xml</dc:format>
        <dc:type
           rdf:resource="http://purl.org/dc/dcmitype/StillImage" />
        <dc:title />
      </cc:Work>
    </rdf:RDF>
  </metadata>
  <g
     id="layer1"
     inkscape:groupmode="layer"
     inkscape:label="Layer 1">
    <use
       height="765"
       width="990"
       transform="matrix(0,-1,1,0,-38.174559,1391.8765)"
       id="use3190"
       xlink:href="#g6233"
       y="0"
       x="0" />
    <path
       d="m 1055.2985,1291.5629 0,0"
       gcodetools="Preview"
       style="fill:none;stroke:#ff8888;stroke-width:1;marker-end:url(#DrawCurveMarker)"
       id="use3230"
       inkscape:connector-curvature="0" />
    <g
       gcodetools="Gcodetools orientation group"
       id="g3946">
      <g
         gcodetools="Gcodetools orientation point (2 points)"
         id="g3948">
        <path
           d="m 0.0,990.0 2.9375,-6.343750000001 0.8125,1.90625 6.843748640396,-6.84374864039 0,0 0.6875,0.6875 -6.84375,6.84375 1.90625,0.812500000001 z z"
           gcodetools="Gcodetools orientation point arrow"
           style="stroke:none;fill:#000000;"
           id="path3950" />
        <text
           gcodetools="Gcodetools orientation point text"
           style="font-family:DejaVu Sans;font-style:normal;font-variant:normal;font-weight:normal;font-stretch:normal;font-family:DejaVu Sans;fill:#000000;fill-opacity:1;stroke:none;font-size:10.000000px;"
           x="10.0"
           y="980.0"
           xml:space="preserve"
           id="text3952"><tspan
             x="10.0"
             y="980.0"
             sodipodi:role="line"
             id="tspan3954">(0.0; 0.0; 0.0)</tspan></text>
      </g>
      <g
         gcodetools="Gcodetools orientation point (2 points)"
         id="g3956">
        <path
           d="m 354.3307066,990.0 2.9375,-6.343750000001 0.8125,1.90625 6.843748640396,-6.84374864039 0,0 0.6875,0.6875 -6.84375,6.84375 1.90625,0.812500000001 z z"
           gcodetools="Gcodetools orientation point arrow"
           style="stroke:none;fill:#000000;"
           id="path3958" />
        <text
           gcodetools="Gcodetools orientation point text"
           style="font-size:10px;font-style:normal;font-variant:normal;font-weight:normal;font-stretch:normal;fill:#000000;fill-opacity:1;stroke:none;font-family:DejaVu Sans"
           x="364.33072"
           y="980"
           xml:space="preserve"
           id="text3960"><tspan
             x="364.33072"
             y="980"
             sodipodi:role="line"
             id="tspan3962">(100.0; 0.0; -2)</tspan></text>
      </g>
    </g>
    <g
       id="g4529" />
    <g
       id="g5813" />
    <g
       id="g5942" />
    <g
       id="g7873" />
    <g
       id="g9693" />
    <g
       gcodetools="Gcodetools tool definition"
       transform="translate(28.216368,1046.5957)"
       id="g5499">
      <path
         inkscape:connector-curvature="0"
         gcodetools="Gcodetools tool background"
         style="fill:#00ff00;fill-opacity:0.5;stroke:#444444;stroke-width:1px"
         d="m -20,-20 400,0 0,175 -400,0 z"
         id="path5501" />
      <g
         gcodetools="Gcodetools tool parameter"
         id="g5503">
        <text
           gcodetools="Gcodetools tool definition field name"
           style="font-size:20px;font-style:normal;font-variant:normal;font-weight:normal;font-stretch:normal;fill:#000000;fill-opacity:1;stroke:none;font-family:DejaVu Sans"
           x="0"
           y="0"
           xml:space="preserve"
           id="text5505"><tspan
             x="0"
             y="0"
             sodipodi:role="line"
             id="tspan5507">name</tspan></text>
        <text
           gcodetools="Gcodetools tool definition field value"
           style="font-size:20px;font-style:normal;font-variant:normal;font-weight:normal;font-stretch:normal;fill:#000000;fill-opacity:1;stroke:none;font-family:DejaVu Sans"
           x="150"
           y="0"
           xml:space="preserve"
           id="text5509"><tspan
             x="150"
             y="0"
             sodipodi:role="line"
             id="tspan5511">Eigth Inch Cone</tspan></text>
      </g>
      <g
         gcodetools="Gcodetools tool parameter"
         id="g5513">
        <text
           gcodetools="Gcodetools tool definition field name"
           style="font-size:10px;font-style:normal;font-variant:normal;font-weight:normal;font-stretch:normal;fill:#000000;fill-opacity:1;stroke:none;font-family:DejaVu Sans"
           x="0"
           y="20"
           xml:space="preserve"
           id="text5515"><tspan
             x="0"
             y="20"
             sodipodi:role="line"
             id="tspan5517">id</tspan></text>
        <text
           gcodetools="Gcodetools tool definition field value"
           style="font-size:10px;font-style:normal;font-variant:normal;font-weight:normal;font-stretch:normal;fill:#000000;fill-opacity:1;stroke:none;font-family:DejaVu Sans"
           x="150"
           y="20"
           xml:space="preserve"
           id="text5519"><tspan
             x="150"
             y="20"
             sodipodi:role="line"
             id="tspan5521">Eigth</tspan></text>
      </g>
      <g
         gcodetools="Gcodetools tool parameter"
         id="g5523">
        <text
           gcodetools="Gcodetools tool definition field name"
           style="font-size:10px;font-style:normal;font-variant:normal;font-weight:normal;font-stretch:normal;fill:#000000;fill-opacity:1;stroke:none;font-family:DejaVu Sans"
           x="0"
           y="35"
           xml:space="preserve"
           id="text5525"><tspan
             x="0"
             y="35"
             sodipodi:role="line"
             id="tspan5527">diameter</tspan></text>
        <text
           gcodetools="Gcodetools tool definition field value"
           style="font-size:10px;font-style:normal;font-variant:normal;font-weight:normal;font-stretch:normal;fill:#000000;fill-opacity:1;stroke:none;font-family:DejaVu Sans"
           x="150"
           y="35"
           xml:space="preserve"
           id="text5529"><tspan
             x="150"
             y="35"
             sodipodi:role="line"
             id="tspan5531">3.15</tspan></text>
      </g>
      <g
         gcodetools="Gcodetools tool parameter"
         id="g5533">
        <text
           gcodetools="Gcodetools tool definition field name"
           style="font-size:10px;font-style:normal;font-variant:normal;font-weight:normal;font-stretch:normal;fill:#000000;fill-opacity:1;stroke:none;font-family:DejaVu Sans"
           x="0"
           y="50"
           xml:space="preserve"
           id="text5535"><tspan
             x="0"
             y="50"
             sodipodi:role="line"
             id="tspan5537">feed</tspan></text>
        <text
           gcodetools="Gcodetools tool definition field value"
           style="font-size:10px;font-style:normal;font-variant:normal;font-weight:normal;font-stretch:normal;fill:#000000;fill-opacity:1;stroke:none;font-family:DejaVu Sans"
           x="150"
           y="50"
           xml:space="preserve"
           id="text5539"><tspan
             x="150"
             y="50"
             sodipodi:role="line"
             id="tspan5541">100</tspan></text>
      </g>
      <g
         gcodetools="Gcodetools tool parameter"
         id="g5543">
        <text
           gcodetools="Gcodetools tool definition field name"
           style="font-size:10px;font-style:normal;font-variant:normal;font-weight:normal;font-stretch:normal;fill:#000000;fill-opacity:1;stroke:none;font-family:DejaVu Sans"
           x="0"
           y="65"
           xml:space="preserve"
           id="text5545"><tspan
             x="0"
             y="65"
             sodipodi:role="line"
             id="tspan5547">shape</tspan></text>
        <text
           gcodetools="Gcodetools tool definition field value"
           style="font-size:10px;font-style:normal;font-variant:normal;font-weight:normal;font-stretch:normal;fill:#000000;fill-opacity:1;stroke:none;font-family:DejaVu Sans"
           x="150"
           y="65"
           xml:space="preserve"
           id="text5549"><tspan
             id="tspan3118"
             x="150"
             y="65"
             sodipodi:role="line">5*w</tspan></text>
      </g>
      <g
         gcodetools="Gcodetools tool parameter"
         id="g5553">
        <text
           gcodetools="Gcodetools tool definition field name"
           style="font-size:10px;font-style:normal;font-variant:normal;font-weight:normal;font-stretch:normal;fill:#000000;fill-opacity:1;stroke:none;font-family:DejaVu Sans"
           x="0"
           y="80"
           xml:space="preserve"
           id="text5555"><tspan
             x="0"
             y="80"
             sodipodi:role="line"
             id="tspan5557">penetration feed</tspan></text>
        <text
           gcodetools="Gcodetools tool definition field value"
           style="font-size:10px;font-style:normal;font-variant:normal;font-weight:normal;font-stretch:normal;fill:#000000;fill-opacity:1;stroke:none;font-family:DejaVu Sans"
           x="150"
           y="80"
           xml:space="preserve"
           id="text5559"><tspan
             x="150"
             y="80"
             sodipodi:role="line"
             id="tspan5561">200</tspan></text>
      </g>
      <g
         gcodetools="Gcodetools tool parameter"
         id="g5563">
        <text
           gcodetools="Gcodetools tool definition field name"
           style="font-size:10px;font-style:normal;font-variant:normal;font-weight:normal;font-stretch:normal;fill:#000000;fill-opacity:1;stroke:none;font-family:DejaVu Sans"
           x="0"
           y="95"
           xml:space="preserve"
           id="text5565"><tspan
             x="0"
             y="95"
             sodipodi:role="line"
             id="tspan5567">depth step</tspan></text>
        <text
           gcodetools="Gcodetools tool definition field value"
           style="font-size:10px;font-style:normal;font-variant:normal;font-weight:normal;font-stretch:normal;fill:#000000;fill-opacity:1;stroke:none;font-family:DejaVu Sans"
           x="150"
           y="95"
           xml:space="preserve"
           id="text5569"><tspan
             x="150"
             y="95"
             sodipodi:role="line"
             id="tspan5571">1</tspan></text>
      </g>
      <g
         gcodetools="Gcodetools tool parameter"
         id="g5573">
        <text
           gcodetools="Gcodetools tool definition field name"
           style="font-size:10px;font-style:normal;font-variant:normal;font-weight:normal;font-stretch:normal;fill:#000000;fill-opacity:1;stroke:none;font-family:DejaVu Sans"
           x="0"
           y="110"
           xml:space="preserve"
           id="text5575"><tspan
             x="0"
             y="110"
             sodipodi:role="line"
             id="tspan5577">tool change gcode</tspan></text>
        <text
           gcodetools="Gcodetools tool definition field value"
           style="font-size:10px;font-style:normal;font-variant:normal;font-weight:normal;font-stretch:normal;fill:#000000;fill-opacity:1;stroke:none;font-family:DejaVu Sans"
           x="150"
           y="110"
           xml:space="preserve"
           id="text5579"><tspan
             x="150"
             y="110"
             sodipodi:role="line"
             id="tspan5581">(None)</tspan></text>
      </g>
    </g>
    <text
       sodipodi:linespacing="125%"
       id="text3844"
       y="944.03809"
       x="27.02158"
       style="font-size:14px;font-style:normal;font-variant:normal;font-weight:bold;font-stretch:normal;text-align:center;line-height:125%;letter-spacing:0px;word-spacing:0px;text-anchor:middle;fill:#000000;fill-opacity:1;stroke:none;font-family:Arial;-inkscape-font-specification:Arial Bold"
       xml:space="preserve"><tspan
         y="944.03809"
         x="27.02158"
         id="tspan3846"
         sodipodi:role="line" /></text>
    <g
       id="g4274">
      <path
         id="path4276"
         style="stroke:#f88;stroke-width:1;marker-end:url(#DrawCurveMarker);fill:none"
         gcodetools="Preview"
         d="M 111.0,-147.8125 L 41.0,-147.8125" />
      <path
         id="path4278"
         style="stroke:#f88;stroke-width:1;marker-end:url(#DrawCurveMarker);fill:none"
         gcodetools="Preview"
         d="M 41.0,-147.8125 L 25.5,-147.8125" />
      <path
         id="path4280"
         style="stroke:#f88;stroke-width:1;marker-end:url(#DrawCurveMarker);fill:none"
         gcodetools="Preview"
         d="M 25.5,-147.8125 L 25.5,-143.5156" />
      <path
         id="path4282"
         style="stroke:#f88;stroke-width:1;marker-end:url(#DrawCurveMarker);fill:none"
         gcodetools="Preview"
         d="M 25.5,-143.5156 L 25.5,-103.5156" />
      <path
         id="path4284"
         style="stroke:#f88;stroke-width:1;marker-end:url(#DrawCurveMarker);fill:none"
         gcodetools="Preview"
         d="M 25.5,-103.5156 L 25.5,-89.2188" />
      <path
         id="path4286"
         style="stroke:#f88;stroke-width:1;marker-end:url(#DrawCurveMarker);fill:none"
         gcodetools="Preview"
         d="M 25.5,-89.2188 L 31.0,-89.2188" />
      <path
         id="path4288"
         style="stroke:#f88;stroke-width:1;marker-end:url(#DrawCurveMarker);fill:none"
         gcodetools="Preview"
         d="M 31.0,-89.2188 L 101.0,-89.2188" />
      <path
         id="path4290"
         style="stroke:#f88;stroke-width:1;marker-end:url(#DrawCurveMarker);fill:none"
         gcodetools="Preview"
         d="M 101.0,-89.2188 L 116.5,-89.2188" />
      <path
         id="path4292"
         style="stroke:#f88;stroke-width:1;marker-end:url(#DrawCurveMarker);fill:none"
         gcodetools="Preview"
         d="M 116.5,-89.2188 L 116.5,-93.5156" />
      <path
         id="path4294"
         style="stroke:#f88;stroke-width:1;marker-end:url(#DrawCurveMarker);fill:none"
         gcodetools="Preview"
         d="M 116.5,-93.5156 L 116.5,-133.5156" />
      <path
         id="path4296"
         style="stroke:#f88;stroke-width:1;marker-end:url(#DrawCurveMarker);fill:none"
         gcodetools="Preview"
         d="M 116.5,-133.5156 L 116.5,-147.8125" />
      <path
         id="path4298"
         style="stroke:#f88;stroke-width:1;marker-end:url(#DrawCurveMarker);fill:none"
         gcodetools="Preview"
         d="M 116.5,-147.8125 L 111.0,-147.8125" />
      <path
         id="path4300"
         style="stroke:#f88;stroke-width:1;marker-end:url(#DrawCurveMarker);fill:none"
         gcodetools="Preview"
         d="M 25.4374,-148.1915 L 25.4374,-148.1915" />
      <path
         id="path4302"
         style="stroke:#f88;stroke-width:1;marker-end:url(#DrawCurveMarker);fill:none"
         gcodetools="Preview"
         d="M 25.4374,-148.1915 L 25.4375,-148.1899" />
      <path
         id="path4304"
         style="stroke:#f88;stroke-width:1;marker-end:url(#DrawCurveMarker);fill:none"
         gcodetools="Preview"
         d="M 25.4375,-148.1899 L 25.4696,-147.8428" />
      <path
         id="path4306"
         style="stroke:#f88;stroke-width:1;marker-end:url(#DrawCurveMarker);fill:none"
         gcodetools="Preview"
         d="M 25.4696,-147.8428 L 25.4696,-147.8428" />
      <path
         id="path4308"
         style="stroke:#f88;stroke-width:1;marker-end:url(#DrawCurveMarker);fill:none"
         gcodetools="Preview"
         d="M 25.4696,-147.8428 L 26.0,-147.8125" />
      <path
         id="path4310"
         style="stroke:#f88;stroke-width:1;marker-end:url(#DrawCurveMarker);fill:none"
         gcodetools="Preview"
         d="M 26.0,-147.8125 L 106.0,-147.8125" />
      <path
         id="path4312"
         style="stroke:#f88;stroke-width:1;marker-end:url(#DrawCurveMarker);fill:none"
         gcodetools="Preview"
         d="M 106.0,-147.8125 L 116.5,-147.8125" />
      <path
         id="path4314"
         style="stroke:#f88;stroke-width:1;marker-end:url(#DrawCurveMarker);fill:none"
         gcodetools="Preview"
         d="M 116.5,-147.8125 L 116.7651,-148.0776" />
      <path
         id="path4316"
         style="stroke:#f88;stroke-width:1;marker-end:url(#DrawCurveMarker);fill:none"
         gcodetools="Preview"
         d="M 116.7651,-148.0776 L 116.7651,-148.0776" />
      <path
         id="path4318"
         style="stroke:#f88;stroke-width:1;marker-end:url(#DrawCurveMarker);fill:none"
         gcodetools="Preview"
         d="M 116.7651,-148.0776 L 116.5,-147.8124" />
      <path
         id="path4320"
         style="stroke:#f88;stroke-width:1;marker-end:url(#DrawCurveMarker);fill:none"
         gcodetools="Preview"
         d="M 116.5,-147.8124 L 116.5,-143.5156" />
      <path
         id="path4322"
         style="stroke:#f88;stroke-width:1;marker-end:url(#DrawCurveMarker);fill:none"
         gcodetools="Preview"
         d="M 116.5,-143.5156 L 116.5,-103.5156" />
      <path
         id="path4324"
         style="stroke:#f88;stroke-width:1;marker-end:url(#DrawCurveMarker);fill:none"
         gcodetools="Preview"
         d="M 116.5,-103.5156 L 116.5,-89.2188" />
      <path
         id="path4326"
         style="stroke:#f88;stroke-width:1;marker-end:url(#DrawCurveMarker);fill:none"
         gcodetools="Preview"
         d="M 116.5,-89.2188 L 116.7651,-88.9537" />
      <path
         id="path4328"
         style="stroke:#f88;stroke-width:1;marker-end:url(#DrawCurveMarker);fill:none"
         gcodetools="Preview"
         d="M 116.7651,-88.9537 L 116.7651,-88.9537" />
      <path
         id="path4330"
         style="stroke:#f88;stroke-width:1;marker-end:url(#DrawCurveMarker);fill:none"
         gcodetools="Preview"
         d="M 116.7651,-88.9537 L 116.4999,-89.2187" />
      <path
         id="path4332"
         style="stroke:#f88;stroke-width:1;marker-end:url(#DrawCurveMarker);fill:none"
         gcodetools="Preview"
         d="M 116.4999,-89.2187 L 116.0,-89.2188" />
      <path
         id="path4334"
         style="stroke:#f88;stroke-width:1;marker-end:url(#DrawCurveMarker);fill:none"
         gcodetools="Preview"
         d="M 116.0,-89.2188 L 36.0,-89.2188" />
      <path
         id="path4336"
         style="stroke:#f88;stroke-width:1;marker-end:url(#DrawCurveMarker);fill:none"
         gcodetools="Preview"
         d="M 36.0,-89.2188 L 25.5,-89.2187" />
      <path
         id="path4338"
         style="stroke:#f88;stroke-width:1;marker-end:url(#DrawCurveMarker);fill:none"
         gcodetools="Preview"
         d="M 25.5,-89.2187 L 25.2349,-88.9537" />
      <path
         id="path4340"
         style="stroke:#f88;stroke-width:1;marker-end:url(#DrawCurveMarker);fill:none"
         gcodetools="Preview"
         d="M 25.2349,-88.9537 L 25.2349,-88.9537" />
      <path
         id="path4342"
         style="stroke:#f88;stroke-width:1;marker-end:url(#DrawCurveMarker);fill:none"
         gcodetools="Preview"
         d="M 25.2349,-88.9537 L 25.5,-89.2189" />
      <path
         id="path4344"
         style="stroke:#f88;stroke-width:1;marker-end:url(#DrawCurveMarker);fill:none"
         gcodetools="Preview"
         d="M 25.5,-89.2189 L 25.5,-93.5156" />
      <path
         id="path4346"
         style="stroke:#f88;stroke-width:1;marker-end:url(#DrawCurveMarker);fill:none"
         gcodetools="Preview"
         d="M 25.5,-93.5156 L 25.5,-133.5156" />
      <path
         id="path4348"
         style="stroke:#f88;stroke-width:1;marker-end:url(#DrawCurveMarker);fill:none"
         gcodetools="Preview"
         d="M 25.5,-133.5156 L 25.4966,-147.8159" />
      <path
         id="path4350"
         style="stroke:#f88;stroke-width:1;marker-end:url(#DrawCurveMarker);fill:none"
         gcodetools="Preview"
         d="M 25.4966,-147.8159 L 25.2213,-147.8177" />
      <path
         id="path4352"
         style="stroke:#f88;stroke-width:1;marker-end:url(#DrawCurveMarker);fill:none"
         gcodetools="Preview"
         d="M 25.2213,-147.8177 L 25.2198,-148.0685" />
      <path
         id="path4354"
         style="stroke:#f88;stroke-width:1;marker-end:url(#DrawCurveMarker);fill:none"
         gcodetools="Preview"
         d="M 25.2198,-148.0685 L 25.2198,-148.0685" />
      <path
         id="path4356"
         style="stroke:#f88;stroke-width:1;marker-end:url(#DrawCurveMarker);fill:none"
         gcodetools="Preview"
         d="M 25.2198,-148.0685 L 25.4374,-148.1915" />
    </g>
    <path
       inkscape:connector-curvature="0"
       id="path12132"
       d="m 26.9375,1245.42 c -4.007911,0 -7.25,-3.2421 -7.25,-7.25 0,-4.0079 3.242089,-7.25 7.25,-7.25 4.007909,0 7.25,3.2421 7.25,7.25 0,4.0079 -3.242091,7.25 -7.25,7.25 z m 9.5,-14.125 c -1.227919,0 -2.25,-0.9908 -2.25,-2.2188 0,-1.2279 1.022081,-2.2187 2.25,-2.2187 1.227919,0 2.25,0.9908 2.25,2.2187 0,1.228 -1.022081,2.2188 -2.25,2.2188 z m 5.875,-3.6875 c -1.227919,0 -2.25,-0.9908 -2.25,-2.2188 0,-1.2279 1.022081,-2.2187 2.25,-2.2187 1.227919,0 2.25,0.9908 2.25,2.2187 0,1.228 -1.022081,2.2188 -2.25,2.2188 z M 82.375,1225.67 c -1.217788,0 -2.1875,-0.9697 -2.1875,-2.1875 0,-1.2178 0.969712,-2.2188 2.1875,-2.2188 1.217788,0 2.1875,1.001 2.1875,2.2188 0,1.2178 -0.969712,2.1875 -2.1875,2.1875 z m 17.625,0 c -1.21779,0 -2.25,-0.9697 -2.25,-2.1875 0,-1.2178 1.03221,-2.2188 2.25,-2.2188 1.2178,0 2.1875,1.001 2.1875,2.2188 0,1.2178 -0.96971,2.1875 -2.1875,2.1875 z m 26.96875,0 c -1.21779,0 -2.21875,-0.9697 -2.21875,-2.1875 0,-1.2178 1.00096,-2.2188 2.21875,-2.2188 1.21779,0 2.1875,1.001 2.1875,2.2188 0,1.2178 -0.96971,2.1875 -2.1875,2.1875 z m -90.53125,-1.5938 c -1.227919,0 -2.25,-0.9908 -2.25,-2.2187 0,-1.2279 1.022081,-2.2188 2.25,-2.2188 1.227919,0 2.25,0.9909 2.25,2.2188 0,1.2279 -1.022081,2.2187 -2.25,2.2187 z m 5.875,-3.75 c -1.227919,0 -2.25,-1.022 -2.25,-2.25 0,-1.2279 1.022081,-2.2187 2.25,-2.2187 1.227919,0 2.25,0.9908 2.25,2.2187 0,1.228 -1.022081,2.25 -2.25,2.25 z m 40.0625,-3.625 c -1.217788,0 -2.1875,-1.0009 -2.1875,-2.2187 0,-1.2178 0.969712,-2.1875 2.1875,-2.1875 1.217788,0 2.1875,0.9697 2.1875,2.1875 0,1.2178 -0.969712,2.2187 -2.1875,2.2187 z m 17.625,0 c -1.21779,0 -2.25,-1.0009 -2.25,-2.2187 0,-1.2178 1.03221,-2.1875 2.25,-2.1875 1.2178,0 2.1875,0.9697 2.1875,2.1875 0,1.2178 -0.96971,2.2187 -2.1875,2.2187 z m 26.96875,0 c -1.21779,0 -2.21875,-1.0009 -2.21875,-2.2187 0,-1.2178 1.00096,-2.1875 2.21875,-2.1875 1.21779,0 2.1875,0.9697 2.1875,2.1875 0,1.2178 -0.96971,2.2187 -2.1875,2.2187 z m -90.53125,-0.1875 c -1.227919,0 -2.25,-1.022 -2.25,-2.25 0,-1.2279 1.022081,-2.2187 2.25,-2.2187 1.227919,0 2.25,0.9908 2.25,2.2187 0,1.228 -1.022081,2.25 -2.25,2.25 z m 5.875,-3.5 c -1.227919,0 -2.25,-0.9908 -2.25,-2.2187 0,-1.2279 1.022081,-2.25 2.25,-2.25 1.227919,0 2.25,1.0221 2.25,2.25 0,1.2279 -1.022081,2.2187 -2.25,2.2187 z m -5.875,-3.7187 c -1.227919,0 -2.25,-1.0221 -2.25,-2.25 0,-1.2279 1.022081,-2.2188 2.25,-2.2188 1.227919,0 2.25,0.9909 2.25,2.2188 0,1.2279 -1.022081,2.25 -2.25,2.25 z m 45.9375,-1.5938 c -1.217788,0 -2.1875,-0.9697 -2.1875,-2.1875 0,-1.2177 0.969712,-2.2187 2.1875,-2.2187 1.217788,0 2.1875,1.001 2.1875,2.2187 0,1.2178 -0.969712,2.1875 -2.1875,2.1875 z m 17.625,0 c -1.21779,0 -2.25,-0.9697 -2.25,-2.1875 0,-1.2177 1.03221,-2.2187 2.25,-2.2187 1.2178,0 2.1875,1.001 2.1875,2.2187 0,1.2178 -0.96971,2.1875 -2.1875,2.1875 z m 26.96875,0 c -1.21779,0 -2.21875,-0.9697 -2.21875,-2.1875 0,-1.2177 1.00096,-2.2187 2.21875,-2.2187 1.21779,0 2.1875,1.001 2.1875,2.2187 0,1.2178 -0.96971,2.1875 -2.1875,2.1875 z M 42.3125,1205.795 c -1.227919,0 -2.25,-1.0221 -2.25,-2.25 0,-1.2279 1.022081,-2.2188 2.25,-2.2188 1.227919,0 2.25,0.9909 2.25,2.2188 0,1.2279 -1.022081,2.25 -2.25,2.25 z m 40.0625,-7.2813 c -1.217788,0 -2.1875,-0.9697 -2.1875,-2.1875 0,-1.2177 0.969712,-2.2187 2.1875,-2.2187 1.217788,0 2.1875,1.001 2.1875,2.2187 0,1.2178 -0.969712,2.1875 -2.1875,2.1875 z m 17.625,0 c -1.21779,0 -2.25,-0.9697 -2.25,-2.1875 0,-1.2177 1.03221,-2.2187 2.25,-2.2187 1.2178,0 2.1875,1.001 2.1875,2.2187 0,1.2178 -0.96971,2.1875 -2.1875,2.1875 z m 26.96875,0 c -1.21779,0 -2.21875,-0.9697 -2.21875,-2.1875 0,-1.2177 1.00096,-2.2187 2.21875,-2.2187 1.21779,0 2.1875,1.001 2.1875,2.2187 0,1.2178 -0.96971,2.1875 -2.1875,2.1875 z M 36.4375,1174.795 c -1.227919,0 -2.25,-0.9908 -2.25,-2.2188 0,-1.2279 1.022081,-2.2187 2.25,-2.2187 1.227919,0 2.25,0.9908 2.25,2.2187 0,1.228 -1.022081,2.2188 -2.25,2.2188 z m 5.875,-3.6875 c -1.227919,0 -2.25,-0.9908 -2.25,-2.2188 0,-1.2279 1.022081,-2.2187 2.25,-2.2187 1.227919,0 2.25,0.9908 2.25,2.2187 0,1.228 -1.022081,2.2188 -2.25,2.2188 z m 40.0625,-0.9063 c -1.217788,0 -2.1875,-0.9697 -2.1875,-2.1875 0,-1.2177 0.969712,-2.2187 2.1875,-2.2187 1.217788,0 2.1875,1.001 2.1875,2.2187 0,1.2178 -0.969712,2.1875 -2.1875,2.1875 z M 100,1169.67 c -1.21779,0 -2.25,-0.9697 -2.25,-2.1875 0,-1.2178 1.03221,-2.2188 2.25,-2.2188 1.2178,0 2.1875,1.001 2.1875,2.2188 0,1.2178 -0.96971,2.1875 -2.1875,2.1875 z m 26.96875,0 c -1.21779,0 -2.21875,-0.9697 -2.21875,-2.1875 0,-1.2178 1.00096,-2.2188 2.21875,-2.2188 1.21779,0 2.1875,1.001 2.1875,2.2188 0,1.2178 -0.96971,2.1875 -2.1875,2.1875 z m -90.53125,-2.0938 c -1.227919,0 -2.25,-0.9908 -2.25,-2.2187 0,-1.2279 1.022081,-2.2188 2.25,-2.2188 1.227919,0 2.25,0.9909 2.25,2.2188 0,1.2279 -1.022081,2.2187 -2.25,2.2187 z m 5.875,-3.75 c -1.227919,0 -2.25,-1.022 -2.25,-2.25 0,-1.2279 1.022081,-2.2187 2.25,-2.2187 1.227919,0 2.25,0.9908 2.25,2.2187 0,1.228 -1.022081,2.25 -2.25,2.25 z m 40.0625,-2.5937 c -1.217788,0 -2.1875,-1.001 -2.1875,-2.2188 0,-1.2177 0.969712,-2.1875 2.1875,-2.1875 1.217788,0 2.1875,0.9698 2.1875,2.1875 0,1.2178 -0.969712,2.2188 -2.1875,2.2188 z M 100,1160.7012 c -1.21779,0 -2.25,-1.0009 -2.25,-2.2187 0,-1.2178 1.03221,-2.2188 2.25,-2.2188 1.2178,0 2.1875,1.001 2.1875,2.2188 0,1.2178 -0.96971,2.2187 -2.1875,2.2187 z m 26.96875,0 c -1.21779,0 -2.21875,-1.0009 -2.21875,-2.2187 0,-1.2178 1.00096,-2.2188 2.21875,-2.2188 1.21779,0 2.1875,1.001 2.1875,2.2188 0,1.2178 -0.96971,2.2187 -2.1875,2.2187 z m -90.53125,-0.6875 c -1.227919,0 -2.25,-1.022 -2.25,-2.25 0,-1.2279 1.022081,-2.2187 2.25,-2.2187 1.227919,0 2.25,0.9908 2.25,2.2187 0,1.228 -1.022081,2.25 -2.25,2.25 z m 5.875,-3.5 c -1.227919,0 -2.25,-0.9908 -2.25,-2.2187 0,-1.2279 1.022081,-2.25 2.25,-2.25 1.227919,0 2.25,1.0221 2.25,2.25 0,1.2279 -1.022081,2.2187 -2.25,2.2187 z m -5.875,-3.7187 c -1.227919,0 -2.25,-1.0221 -2.25,-2.25 0,-1.2279 1.022081,-2.2188 2.25,-2.2188 1.227919,0 2.25,0.9909 2.25,2.2188 0,1.2279 -1.022081,2.25 -2.25,2.25 z m 45.9375,-0.5625 c -1.217788,0 -2.1875,-0.9697 -2.1875,-2.1875 0,-1.2178 0.969712,-2.2188 2.1875,-2.2188 1.217788,0 2.1875,1.001 2.1875,2.2188 0,1.2178 -0.969712,2.1875 -2.1875,2.1875 z M 100,1151.7012 c -1.21779,0 -2.25,-0.9697 -2.25,-2.1875 0,-1.2177 1.03221,-2.2187 2.25,-2.2187 1.2178,0 2.1875,1.001 2.1875,2.2187 0,1.2178 -0.96971,2.1875 -2.1875,2.1875 z m 26.96875,0 c -1.21779,0 -2.21875,-0.9697 -2.21875,-2.1875 0,-1.2177 1.00096,-2.2187 2.21875,-2.2187 1.21779,0 2.1875,1.001 2.1875,2.2187 0,1.2178 -0.96971,2.1875 -2.1875,2.1875 z M 42.3125,1149.295 c -1.227919,0 -2.25,-1.0221 -2.25,-2.25 0,-1.2279 1.022081,-2.2188 2.25,-2.2188 1.227919,0 2.25,0.9909 2.25,2.2188 0,1.2279 -1.022081,2.25 -2.25,2.25 z m -15.375,-4.375 c -4.007911,0 -7.25,-3.2421 -7.25,-7.25 0,-4.0079 3.242089,-7.25 7.25,-7.25 4.007909,0 7.25,3.2421 7.25,7.25 0,4.0079 -3.242091,7.25 -7.25,7.25 z m 55.4375,-1.875 c -1.217788,0 -2.1875,-0.9697 -2.1875,-2.1875 0,-1.2178 0.969712,-2.2188 2.1875,-2.2188 1.217788,0 2.1875,1.001 2.1875,2.2188 0,1.2178 -0.969712,2.1875 -2.1875,2.1875 z M 100,1142.5137 c -1.21779,0 -2.25,-0.9697 -2.25,-2.1875 0,-1.2177 1.03221,-2.2187 2.25,-2.2187 1.2178,0 2.1875,1.001 2.1875,2.2187 0,1.2178 -0.96971,2.1875 -2.1875,2.1875 z m 26.96875,0 c -1.21779,0 -2.21875,-0.9697 -2.21875,-2.1875 0,-1.2177 1.00096,-2.2187 2.21875,-2.2187 1.21779,0 2.1875,1.001 2.1875,2.2187 0,1.2178 -0.96971,2.1875 -2.1875,2.1875 z M 26.9375,1116.1387 c -4.007911,0 -7.25,-3.242 -7.25,-7.25 0,-4.0079 3.242089,-7.25 7.25,-7.25 4.007909,0 7.25,3.2421 7.25,7.25 0,4.008 -3.242091,7.25 -7.25,7.25 z m 9.5,-14.125 c -1.227919,0 -2.25,-0.9908 -2.25,-2.2187 0,-1.2279 1.022081,-2.2188 2.25,-2.2188 1.227919,0 2.25,0.9909 2.25,2.2188 0,1.2279 -1.022081,2.2187 -2.25,2.2187 z m 5.875,-3.6875 c -1.227919,0 -2.25,-0.9908 -2.25,-2.2187 0,-1.2279 1.022081,-2.2188 2.25,-2.2188 1.227919,0 2.25,0.9909 2.25,2.2188 0,1.2279 -1.022081,2.2187 -2.25,2.2187 z m 40.0625,-1.9375 c -1.217788,0 -2.1875,-0.9697 -2.1875,-2.1875 0,-1.2177 0.969712,-2.2187 2.1875,-2.2187 1.217788,0 2.1875,1.001 2.1875,2.2187 0,1.2178 -0.969712,2.1875 -2.1875,2.1875 z m 17.625,0 c -1.21779,0 -2.25,-0.9697 -2.25,-2.1875 0,-1.2177 1.03221,-2.2187 2.25,-2.2187 1.2178,0 2.1875,1.001 2.1875,2.2187 0,1.2178 -0.96971,2.1875 -2.1875,2.1875 z m 26.96875,0 c -1.21779,0 -2.21875,-0.9697 -2.21875,-2.1875 0,-1.2177 1.00096,-2.2187 2.21875,-2.2187 1.21779,0 2.1875,1.001 2.1875,2.2187 0,1.2178 -0.96971,2.1875 -2.1875,2.1875 z M 36.4375,1094.795 c -1.227919,0 -2.25,-0.9908 -2.25,-2.2188 0,-1.2279 1.022081,-2.2187 2.25,-2.2187 1.227919,0 2.25,0.9908 2.25,2.2187 0,1.228 -1.022081,2.2188 -2.25,2.2188 z m 5.875,-3.75 c -1.227919,0 -2.25,-1.0221 -2.25,-2.25 0,-1.2279 1.022081,-2.2188 2.25,-2.2188 1.227919,0 2.25,0.9909 2.25,2.2188 0,1.2279 -1.022081,2.25 -2.25,2.25 z m 40.0625,-3.625 c -1.217788,0 -2.1875,-1.001 -2.1875,-2.2188 0,-1.2177 0.969712,-2.1875 2.1875,-2.1875 1.217788,0 2.1875,0.9698 2.1875,2.1875 0,1.2178 -0.969712,2.2188 -2.1875,2.2188 z m 17.625,0 c -1.21779,0 -2.25,-1.001 -2.25,-2.2188 0,-1.2177 1.03221,-2.1875 2.25,-2.1875 1.2178,0 2.1875,0.9698 2.1875,2.1875 0,1.2178 -0.96971,2.2188 -2.1875,2.2188 z m 26.96875,0 c -1.21779,0 -2.21875,-1.001 -2.21875,-2.2188 0,-1.2177 1.00096,-2.1875 2.21875,-2.1875 1.21779,0 2.1875,0.9698 2.1875,2.1875 0,1.2178 -0.96971,2.2188 -2.1875,2.2188 z m -90.53125,-0.1875 c -1.227919,0 -2.25,-1.0221 -2.25,-2.25 0,-1.2279 1.022081,-2.2188 2.25,-2.2188 1.227919,0 2.25,0.9909 2.25,2.2188 0,1.2279 -1.022081,2.25 -2.25,2.25 z m 5.875,-3.5 c -1.227919,0 -2.25,-0.9908 -2.25,-2.2188 0,-1.2279 1.022081,-2.25 2.25,-2.25 1.227919,0 2.25,1.0221 2.25,2.25 0,1.228 -1.022081,2.2188 -2.25,2.2188 z m -5.875,-3.7188 c -1.227919,0 -2.25,-1.022 -2.25,-2.25 0,-1.2279 1.022081,-2.2187 2.25,-2.2187 1.227919,0 2.25,0.9908 2.25,2.2187 0,1.228 -1.022081,2.25 -2.25,2.25 z M 82.375,1078.42 c -1.217788,0 -2.1875,-0.9697 -2.1875,-2.1875 0,-1.2178 0.969712,-2.2188 2.1875,-2.2188 1.217788,0 2.1875,1.001 2.1875,2.2188 0,1.2178 -0.969712,2.1875 -2.1875,2.1875 z m 17.625,0 c -1.21779,0 -2.25,-0.9697 -2.25,-2.1875 0,-1.2178 1.03221,-2.2188 2.25,-2.2188 1.2178,0 2.1875,1.001 2.1875,2.2188 0,1.2178 -0.96971,2.1875 -2.1875,2.1875 z m 26.96875,0 c -1.21779,0 -2.21875,-0.9697 -2.21875,-2.1875 0,-1.2178 1.00096,-2.2188 2.21875,-2.2188 1.21779,0 2.1875,1.001 2.1875,2.2188 0,1.2178 -0.96971,2.1875 -2.1875,2.1875 z m -84.65625,-1.9063 c -1.227919,0 -2.25,-1.022 -2.25,-2.25 0,-1.2279 1.022081,-2.2187 2.25,-2.2187 1.227919,0 2.25,0.9908 2.25,2.2187 0,1.228 -1.022081,2.25 -2.25,2.25 z m 40.0625,-7.2812 c -1.217788,0 -2.1875,-0.9697 -2.1875,-2.1875 0,-1.2178 0.969712,-2.2188 2.1875,-2.2188 1.217788,0 2.1875,1.001 2.1875,2.2188 0,1.2178 -0.969712,2.1875 -2.1875,2.1875 z m 17.625,0 c -1.21779,0 -2.25,-0.9697 -2.25,-2.1875 0,-1.2178 1.03221,-2.2188 2.25,-2.2188 1.2178,0 2.1875,1.001 2.1875,2.2188 0,1.2178 -0.96971,2.1875 -2.1875,2.1875 z m 26.96875,0 c -1.21779,0 -2.21875,-0.9697 -2.21875,-2.1875 0,-1.2178 1.00096,-2.2188 2.21875,-2.2188 1.21779,0 2.1875,1.001 2.1875,2.2188 0,1.2178 -0.96971,2.1875 -2.1875,2.1875 z M 36.4375,1045.5137 c -1.227919,0 -2.25,-0.9908 -2.25,-2.2187 0,-1.2279 1.022081,-2.2188 2.25,-2.2188 1.227919,0 2.25,0.9909 2.25,2.2188 0,1.2279 -1.022081,2.2187 -2.25,2.2187 z m 5.875,-3.6875 c -1.227919,0 -2.25,-0.9908 -2.25,-2.2187 0,-1.2279 1.022081,-2.2188 2.25,-2.2188 1.227919,0 2.25,0.9909 2.25,2.2188 0,1.2279 -1.022081,2.2187 -2.25,2.2187 z M 82.375,1040.92 c -1.217788,0 -2.1875,-0.9697 -2.1875,-2.1875 0,-1.2178 0.969712,-2.2188 2.1875,-2.2188 1.217788,0 2.1875,1.001 2.1875,2.2188 0,1.2178 -0.969712,2.1875 -2.1875,2.1875 z M 100,1040.3887 c -1.21779,0 -2.25,-0.9697 -2.25,-2.1875 0,-1.2177 1.03221,-2.2187 2.25,-2.2187 1.2178,0 2.1875,1.001 2.1875,2.2187 0,1.2178 -0.96971,2.1875 -2.1875,2.1875 z m 26.96875,0 c -1.21779,0 -2.21875,-0.9697 -2.21875,-2.1875 0,-1.2177 1.00096,-2.2187 2.21875,-2.2187 1.21779,0 2.1875,1.001 2.1875,2.2187 0,1.2178 -0.96971,2.1875 -2.1875,2.1875 z M 36.4375,1038.295 c -1.227919,0 -2.25,-0.9908 -2.25,-2.2188 0,-1.2279 1.022081,-2.2187 2.25,-2.2187 1.227919,0 2.25,0.9908 2.25,2.2187 0,1.228 -1.022081,2.2188 -2.25,2.2188 z m 5.875,-3.75 c -1.227919,0 -2.25,-1.0221 -2.25,-2.25 0,-1.2279 1.022081,-2.2188 2.25,-2.2188 1.227919,0 2.25,0.9909 2.25,2.2188 0,1.2279 -1.022081,2.25 -2.25,2.25 z m 40.0625,-2.5938 c -1.217788,0 -2.1875,-1.0009 -2.1875,-2.2187 0,-1.2178 0.969712,-2.1875 2.1875,-2.1875 1.217788,0 2.1875,0.9697 2.1875,2.1875 0,1.2178 -0.969712,2.2187 -2.1875,2.2187 z M 100,1031.42 c -1.21779,0 -2.25,-1.001 -2.25,-2.2188 0,-1.2177 1.03221,-2.2187 2.25,-2.2187 1.2178,0 2.1875,1.001 2.1875,2.2187 0,1.2178 -0.96971,2.2188 -2.1875,2.2188 z m 26.96875,0 c -1.21779,0 -2.21875,-1.001 -2.21875,-2.2188 0,-1.2177 1.00096,-2.2187 2.21875,-2.2187 1.21779,0 2.1875,1.001 2.1875,2.2187 0,1.2178 -0.96971,2.2188 -2.1875,2.2188 z m -90.53125,-0.6875 c -1.227919,0 -2.25,-1.0221 -2.25,-2.25 0,-1.2279 1.022081,-2.2188 2.25,-2.2188 1.227919,0 2.25,0.9909 2.25,2.2188 0,1.2279 -1.022081,2.25 -2.25,2.25 z m 5.875,-3.5 c -1.227919,0 -2.25,-0.9908 -2.25,-2.2188 0,-1.2279 1.022081,-2.25 2.25,-2.25 1.227919,0 2.25,1.0221 2.25,2.25 0,1.228 -1.022081,2.2188 -2.25,2.2188 z m -5.875,-3.7188 c -1.227919,0 -2.25,-1.022 -2.25,-2.25 0,-1.2279 1.022081,-2.2187 2.25,-2.2187 1.227919,0 2.25,0.9908 2.25,2.2187 0,1.228 -1.022081,2.25 -2.25,2.25 z m 45.9375,-0.5625 c -1.217788,0 -2.1875,-0.9697 -2.1875,-2.1875 0,-1.2177 0.969712,-2.2187 2.1875,-2.2187 1.217788,0 2.1875,1.001 2.1875,2.2187 0,1.2178 -0.969712,2.1875 -2.1875,2.1875 z M 100,1022.42 c -1.21779,0 -2.25,-0.9697 -2.25,-2.1875 0,-1.2178 1.03221,-2.2188 2.25,-2.2188 1.2178,0 2.1875,1.001 2.1875,2.2188 0,1.2178 -0.96971,2.1875 -2.1875,2.1875 z m 26.96875,0 c -1.21779,0 -2.21875,-0.9697 -2.21875,-2.1875 0,-1.2178 1.00096,-2.2188 2.21875,-2.2188 1.21779,0 2.1875,1.001 2.1875,2.2188 0,1.2178 -0.96971,2.1875 -2.1875,2.1875 z m -84.65625,-2.4063 c -1.227919,0 -2.25,-1.022 -2.25,-2.25 0,-1.2279 1.022081,-2.2187 2.25,-2.2187 1.227919,0 2.25,0.9908 2.25,2.2187 0,1.228 -1.022081,2.25 -2.25,2.25 z m -15.375,-4.375 c -4.007911,0 -7.25,-3.242 -7.25,-7.25 0,-4.0079 3.242089,-7.25 7.25,-7.25 4.007909,0 7.25,3.2421 7.25,7.25 0,4.008 -3.242091,7.25 -7.25,7.25 z m 55.4375,-1.875 c -1.217788,0 -2.1875,-0.9697 -2.1875,-2.1875 0,-1.2177 0.969712,-2.2187 2.1875,-2.2187 1.217788,0 2.1875,1.001 2.1875,2.2187 0,1.2178 -0.969712,2.1875 -2.1875,2.1875 z M 100,1013.2325 c -1.21779,0 -2.25,-0.9697 -2.25,-2.1875 0,-1.2178 1.03221,-2.2188 2.25,-2.2188 1.2178,0 2.1875,1.001 2.1875,2.2188 0,1.2178 -0.96971,2.1875 -2.1875,2.1875 z m 26.96875,0 c -1.21779,0 -2.21875,-0.9697 -2.21875,-2.1875 0,-1.2178 1.00096,-2.2188 2.21875,-2.2188 1.21779,0 2.1875,1.001 2.1875,2.2188 0,1.2178 -0.96971,2.1875 -2.1875,2.1875 z M 0,991.38874 c -0.74558441,0 -1.34375,-0.59817 -1.34375,-1.34375 0,-0.74558 0.59816559,-1.34375 1.34375,-1.34375 0.74558441,0 1.34375,0.59817 1.34375,1.34375 0,0.74558 -0.59816559,1.34375 -1.34375,1.34375 z"
       style="opacity:0.52509652;color:#000000;fill:#fa1700;fill-opacity:1;fill-rule:nonzero;stroke:none;stroke-width:2.33858275;marker:none;visibility:visible;display:inline;overflow:visible;enable-background:accumulate" />
    <path
       id="rect3122"
       d="m 11.875,859.0625 -6.4375,6.03125 0,111.53125 10.3125,8.96875 136.84375,-0.125 5.21875,-5.71875 0.21875,-114.25 -8.46875,-6.4375 -137.6875,0 z m 0,-129.28125 -6.4375,6.03125 0,111.53125 10.3125,8.96875 136.84375,-0.125 5.21875,-5.71875 0.21875,-114.25 -8.46875,-6.4375 -137.6875,0 z m -0.5625,-2.375 a 1.1694083,1.1694083 0 0 1 0.125,0.0312 l 138.5,0 a 1.1694083,1.1694083 0 0 1 0.6875,0.25 l 9.28125,7 a 1.1694083,1.1694083 0 0 1 0.4375,0.9375 l -0.1875,115.28125 a 1.1694083,1.1694083 0 0 1 -0.3125,0.78125 L 154,858.15625 a 1.1694083,1.1694083 0 0 1 -0.875,0.375 l -0.4375,0 7.21875,5.4375 a 1.1694083,1.1694083 0 0 1 0.4375,0.9375 l -0.1875,115.28125 a 1.1694083,1.1694083 0 0 1 -0.3125,0.78125 L 154,987.4375 a 1.1694083,1.1694083 0 0 1 -0.875,0.375 l -137.8125,0.125 A 1.1694083,1.1694083 0 0 1 14.5,987.65625 l -11,-9.625 a 1.1694083,1.1694083 0 0 1 -0.40625,-0.875 l 0,-112.5625 a 1.1694083,1.1694083 0 0 1 0.375,-0.875 l 7.15625,-6.6875 a 1.1694083,1.1694083 0 0 1 0.6875,-0.3125 1.1694083,1.1694083 0 0 1 0.125,0 l 1.15625,0 L 3.5,848.75 a 1.1694083,1.1694083 0 0 1 -0.40625,-0.875 l 0,-112.5625 a 1.1694083,1.1694083 0 0 1 0.375,-0.875 L 10.625,727.75 a 1.1694083,1.1694083 0 0 1 0.6875,-0.3125 1.1694083,1.1694083 0 0 1 0,-0.0312 z"
       style="font-size:medium;font-style:normal;font-variant:normal;font-weight:normal;font-stretch:normal;text-indent:0;text-align:start;text-decoration:none;line-height:normal;letter-spacing:normal;word-spacing:normal;text-transform:none;direction:ltr;block-progression:tb;writing-mode:lr-tb;text-anchor:start;baseline-shift:baseline;color:#000000;fill:#000000;fill-opacity:1;stroke:none;stroke-width:2.33858275;marker:none;visibility:visible;display:inline;overflow:visible;enable-background:accumulate;font-family:Sans;-inkscape-font-specification:Sans" />
    <path
       id="path3725"
       d="m 40.1875,943.53125 0,7.59375 19.90625,-0.15625 0.0625,0 0.0625,0.0312 14.59375,3.84375 32.4375,0.21875 -0.46875,-9.03125 -31.21875,0.125 -0.03125,0 -0.03125,0 -15.1875,-2.4375 -0.03125,0 -20.09375,-0.1875 z m -0.25,-7.4375 0,3.9375 a 0.36003601,0.36003601 0 0 1 0,0.21875 l 0,2.5625 20.40625,0.1875 0.03125,0 15.1875,2.46875 0,-0.0312 31.1875,-0.125 0,-7.28125 -66.8125,-1.9375 z m 82.15625,-27.71875 0,0.40625 2.53125,0 a 0.36003601,0.36003601 0 0 1 0.25,0.65625 l 14.8125,0.90625 0.34375,0.0312 0,0.34375 0,53.125 0,0.34375 -0.375,0 -24.40625,0 -0.34375,0 -0.0312,-0.34375 -0.375,-33.96875 -1.46875,0.3125 0.28125,0 0.375,0 0,0.34375 0,34.34375 27.21875,0 0,-55.4375 -18.8125,-1.0625 z m -2.96875,-0.15625 0,0.5625 2.25,0 0,-0.4375 -2.25,-0.125 z m 2.96875,-10.03125 0,9.46875 19.1875,1.0625 0.34375,0.0312 0,0.34375 0,56.125 0,0.375 -0.34375,0 -27.59375,0 0,0.375 a 0.36003601,0.36003601 0 0 1 -0.65625,0.25 0.36003601,0.36003601 0 0 1 -0.0625,-0.25 l 0,-0.5 a 0.36003601,0.36003601 0 0 1 0,-0.46875 l 0,-34.09375 -83.53125,-2 0,10.875 9.8125,0 0,-4.0625 0,-0.375 0.3125,0.0312 67.53125,1.9375 0.375,0 0,0.34375 0,8 a 0.36003601,0.36003601 0 0 1 0,0.0937 l 0.4375,8.15625 a 0.36003601,0.36003601 0 0 1 0.0625,0.25 l 0,1.25 0.0312,0.375 -0.0312,0 0,8.3125 0,0.375 -0.34375,0 -38.875,0 0,7.75 43.71875,0 a 0.36003601,0.36003601 0 0 1 0.25,0.125 0.36003601,0.36003601 0 0 1 0.0625,0.0937 l 35.65625,0 0,-74.25 -26.34375,0 z m -82.28125,-2.375 0,7.5 17.96875,0 0.375,0 0,0.375 0,18.375 32.25,0 0.03125,0 0.03125,0 26.125,4 0.3125,0.0625 0,0.3125 0,28.4375 16.71875,0 0,-8.25 -8.96875,0 -0.34375,0 0,-0.375 0,-25.8125 -31.125,-3.6875 -22.8125,0 -0.34375,0 0,-0.34375 0,-8.09375 0,-0.375 0.34375,0 36.90625,0 0,-8.3125 -32.5,-0.28125 -0.0625,0 -0.03125,0 -14.25,-3.46875 -0.0625,0 -20.53125,-0.0625 -0.03125,0 z m 82.28125,-6.625 0,8.25 26.75,0 0.375,0 0,0.375 0,75 0,0.375 -0.375,0 -38.6875,0 a 0.36003601,0.36003601 0 0 1 -0.25,-0.125 0.36003601,0.36003601 0 0 1 -0.0937,-0.125 l -41.40625,0 -0.34375,0 0,-0.34375 0,-8.5 0,-0.34375 0.34375,0 38.875,0 0,-7.96875 -32.4375,-0.21875 -0.0625,0 -0.03125,0 -14.6875,-3.875 -20.1875,0.15625 -0.03125,0 0,6.9375 18.96875,0 0.375,0 0,0.375 0,19.9375 97.09375,0 0,-89.90625 -34.1875,0 z m -1,0 0,8.25 0.28125,0 0,-8.25 -0.28125,0 z M 60.25,887.46875 l -20.0625,0.0625 0,7.5625 20.25,0.0625 0.0625,0 0.0625,0 14.25,3.46875 32.4375,0.28125 -0.46875,-8.875 -32.15625,-0.21875 -0.0625,0 -14.25,-2.34375 -0.0625,0 z m -20.3125,-7.375 0,6.71875 20.375,-0.0625 0.03125,0 0.03125,0 14.21875,2.34375 0.03125,0 32.125,0.21875 0,-7.28125 -66.8125,-1.9375 z m -6.5,-7.1875 0,10.875 5.625,0 a 0.36003601,0.36003601 0 0 1 0.1875,0.0312 l 0,-4.09375 0,-0.375 0.3125,0.0312 67.53125,1.9375 0.375,0 0,0.34375 0,8 a 0.36003601,0.36003601 0 0 1 0,0.0937 l 0.46875,8.1875 A 0.36003601,0.36003601 0 0 1 108,898.15625 l 0,1.09375 0,0.375 0,8.6875 0,0.34375 -0.34375,0 -36.90625,0 0,7.375 19.8125,0 a 0.36003601,0.36003601 0 0 1 0.5,-0.25 l 2.0625,0.25 0.03125,0 0.09375,0 a 0.36003601,0.36003601 0 0 1 0.03125,0.0312 l 31.40625,3.71875 0.3125,0.0312 0,0.3125 0,25.75 8.96875,0 0.375,0 0,0.375 0,9 0,0.34375 -0.375,0 -17.46875,0 -0.34375,0 0,-0.34375 0,-25.71875 -0.96875,0.1875 0.40625,33.75 23.6875,0 0,-52.4375 -17.59375,-1.09375 -0.34375,-0.0312 0,-0.3125 0,-0.0937 -2.625,0 -0.34375,0 0,-0.34375 0,-1 -3.9375,-0.21875 -0.34375,-0.0312 0,-0.3125 0,-32.6875 -80.65625,-2 z m 88.125,-14.71875 a 0.36003601,0.36003601 0 0 1 0.0312,0 l 0.0312,0 a 0.36003601,0.36003601 0 0 1 0.375,0.125 0.36003601,0.36003601 0 0 1 0.0625,0.25 l 0,29.5 0,0.40625 34.5625,0 0.375,0 0,0.375 0,90.625 0,0.34375 -0.375,0 -97.84375,0 -0.375,0 0,-0.34375 0,-19.96875 -18.96875,0 -0.375,0 0,-0.34375 0,-7.8125 a 0.36003601,0.36003601 0 0 1 0.125,-0.28125 0.36003601,0.36003601 0 0 1 0.28125,-0.125 l 0,-7.375 a 0.36003601,0.36003601 0 0 1 -0.25,-0.375 l 0,-2.6875 -10.15625,0 -0.34375,0 0,-0.34375 0,-11.5 -25.40625,0 a 0.375,0.375 0 0 1 0,-0.75 l 25.78125,0 a 0.375,0.375 0 0 1 0.375,0.28125 l 80.75,1.9375 a 0.36003601,0.36003601 0 0 1 0.3125,-0.15625 l 2.65625,-0.5625 L 86.5,925.5 l 0,0.0312 -80.84375,0 a 0.375,0.375 0 0 1 0,-0.75 l 80.84375,0 0.03125,0 0.03125,0.0312 28.3125,4.09375 0.3125,0.0312 0,0.0625 0.96875,-0.21875 0,-2.03125 -25.75,-3.96875 -0.03125,0 -32.59375,0 -0.34375,0 0,-0.34375 0,-18.40625 -18,0 -0.375,0 0,-0.34375 0,-8.21875 a 0.36003601,0.36003601 0 0 1 0.34375,-0.375 0.36003601,0.36003601 0 0 1 0.0625,0 l 0,-7.53125 a 0.36003601,0.36003601 0 0 1 -0.25,-0.375 l 0,-2.75 A 0.36003601,0.36003601 0 0 1 39.0625,884.5 l -6,0 -0.34375,0 0,-0.34375 0,-11.625 0,-0.34375 0.375,0 81.375,2 0.34375,0 0,0.34375 0,32.71875 3.5625,0.21875 0,-48.3125 a 0.36003601,0.36003601 0 0 1 0.25,-0.375 0.36003601,0.36003601 0 0 1 0.46875,0.375 l 0,48.34375 2.25,0.125 0,-9.4375 -0.65625,0 -0.375,0 0,-0.375 0,-8.96875 0,-0.375 0.375,0 0.65625,0 0,-0.40625 0,-29.5 a 0.36003601,0.36003601 0 0 1 0.21875,-0.375 z m -81.375,-43.9375 0,7.59375 19.90625,-0.15625 0.0625,0 0.0625,0 14.59375,3.84375 32.4375,0.21875 -0.46875,-9.03125 -31.21875,0.125 -0.03125,0 -0.03125,0 -15.1875,-2.4375 -0.03125,0 L 40.1875,814.25 z m -0.25,-7.4375 0,3.9375 a 0.36003601,0.36003601 0 0 1 0,0.21875 l 0,2.5625 20.40625,0.1875 0.03125,0 15.1875,2.46875 0,-0.0312 31.1875,-0.125 0,-7.28125 -66.8125,-1.9375 z m 82.15625,-27.75 0,0.0312 0,0.40625 2.53125,0 a 0.36003601,0.36003601 0 0 1 0.25,0.65625 l 14.8125,0.90625 0.34375,0 0,0.34375 0,53.125 0,0.34375 -0.375,0 -24.40625,0 -0.34375,0 -0.0312,-0.34375 -0.375,-33.96875 -1.46875,0.3125 0.28125,0 0.375,0 0,0.34375 0,34.34375 27.21875,0 0,-55.4375 -18.8125,-1.0625 z m -2.96875,-0.125 0,0.5625 2.25,0 0,-0.4375 -2.25,-0.125 z m 2.9375,-10.0625 0.0312,0.0312 0,9.46875 19.1875,1.0625 0.34375,0 0,0.34375 0,56.125 0,0.375 -0.34375,0 -27.59375,0 0,0.375 a 0.36003601,0.36003601 0 1 1 -0.71875,0 l 0,-0.5 a 0.36003601,0.36003601 0 0 1 0,-0.46875 l 0,-34.09375 -83.53125,-2 0,10.875 9.8125,0 0,-4.0625 0,-0.375 0.3125,0.0312 67.53125,1.9375 0.375,0 0,0.34375 0,8 a 0.36003601,0.36003601 0 0 1 0,0.0937 l 0.4375,8.15625 a 0.36003601,0.36003601 0 0 1 0.0625,0.25 l 0,1.25 0.0312,0.375 -0.0312,0 0,8.3125 0,0.375 -0.34375,0 -38.875,0 0,7.75 43.71875,0 a 0.36003601,0.36003601 0 0 1 0.25,0.125 0.36003601,0.36003601 0 0 1 0.0625,0.0937 l 35.65625,0 0,-74.25 -26.375,0 z m -82.25,-2.34375 0,7.5 17.96875,0 0.375,0 0,0.375 0,18.375 32.25,0 0.03125,0 0.03125,0 26.125,4 0.3125,0.0625 0,0.3125 0,28.4375 16.71875,0 0,-8.25 -8.96875,0 -0.34375,0 0,-0.375 0,-25.8125 -31.125,-3.6875 -22.8125,0 -0.34375,0 0,-0.34375 0,-8.09375 0,-0.375 0.34375,0 36.90625,0 0,-8.3125 -32.5,-0.28125 -0.0625,0 -0.03125,0 -14.25,-3.46875 -0.0625,0 -20.53125,-0.0625 -0.03125,0 z m 82.28125,-6.625 0,8.25 26.75,0 0.375,0 0,0.375 0,75 0,0.375 -0.375,0 -38.6875,0 a 0.36003601,0.36003601 0 0 1 -0.25,-0.125 0.36003601,0.36003601 0 0 1 -0.0937,-0.125 l -41.40625,0 -0.34375,0 0,-0.34375 0,-8.5 0,-0.34375 0.34375,0 38.875,0 0,-7.96875 -32.4375,-0.21875 -0.0625,0 -0.03125,0 -14.6875,-3.875 -20.1875,0.15625 -0.03125,0 0,6.9375 18.96875,0 0.375,0 0,0.375 0,19.9375 97.09375,0 0,-89.90625 -34.1875,0 z m -1,0 0,8.25 0.28125,0 0,-8.25 -0.28125,0 z M 60.25,758.1875 40.1875,758.25 l 0,7.5625 20.25,0.0625 0.0625,0 0.0625,0 14.25,3.46875 32.4375,0.28125 -0.46875,-8.875 -32.15625,-0.21875 -0.0625,0 -14.25,-2.34375 -0.0625,0 z m -20.3125,-7.375 0,6.71875 20.375,-0.0625 0.03125,0 0.03125,0 14.21875,2.34375 0.03125,0 32.125,0.21875 0,-7.28125 -66.8125,-1.9375 z m -6.5,-7.1875 0,10.875 5.625,0 a 0.36003601,0.36003601 0 0 1 0.1875,0 l 0,-4.09375 0,-0.375 0.3125,0.0312 67.53125,1.9375 0.375,0 0,0.34375 0,8 a 0.36003601,0.36003601 0 0 1 0,0.0937 l 0.46875,8.1875 A 0.36003601,0.36003601 0 0 1 108,768.84375 l 0,1.09375 0,0.375 0,8.6875 0,0.34375 -0.34375,0 -36.90625,0 0,7.375 19.8125,0 a 0.36003601,0.36003601 0 0 1 0.5,-0.21875 l 2.0625,0.25 0.03125,0 0.09375,0 a 0.36003601,0.36003601 0 0 1 0.03125,0 l 31.40625,3.71875 0.3125,0.0312 0,0.3125 0,25.75 8.96875,0 0.375,0 0,0.375 0,9 0,0.34375 -0.375,0 -17.46875,0 -0.34375,0 0,-0.34375 0,-25.71875 -0.96875,0.1875 0.40625,33.75 23.6875,0 0,-52.4375 -17.59375,-1.09375 -0.34375,-0.0312 0,-0.3125 0,-0.0625 -2.625,0 -0.34375,0 0,-0.34375 0,-1 -3.9375,-0.21875 -0.34375,-0.0312 0,-0.3125 0,-32.6875 -80.65625,-2 z m 88.15625,-14.75 0.0312,0.0312 a 0.36003601,0.36003601 0 0 1 0.4375,0.375 l 0,29.5 0,0.40625 34.5625,0 0.375,0 0,0.375 0,90.625 0,0.34375 -0.375,0 -97.84375,0 -0.375,0 0,-0.34375 0,-19.96875 -18.96875,0 -0.375,0 0,-0.34375 0,-7.8125 a 0.36003601,0.36003601 0 0 1 0.125,-0.28125 0.36003601,0.36003601 0 0 1 0.28125,-0.125 l 0,-7.375 a 0.36003601,0.36003601 0 0 1 -0.25,-0.375 l 0,-2.6875 -10.15625,0 -0.34375,0 0,-0.34375 0,-11.5 -25.40625,0 a 0.375,0.375 0 0 1 0,-0.75 l 25.78125,0 a 0.375,0.375 0 0 1 0.375,0.28125 l 80.75,1.9375 a 0.36003601,0.36003601 0 0 1 0.3125,-0.15625 l 2.65625,-0.5625 -26.6875,-3.90625 -80.84375,0 a 0.375,0.375 0 0 1 0,-0.75 l 80.84375,0 0.03125,0 0.03125,0.0312 28.3125,4.09375 0.3125,0.0312 0,0.0625 0.96875,-0.21875 0,-2.03125 -25.75,-3.96875 -0.03125,0 -32.59375,0 -0.34375,0 0,-0.34375 0,-18.40625 -18,0 -0.375,0 0,-0.34375 0,-8.21875 a 0.36003601,0.36003601 0 0 1 0.34375,-0.375 0.36003601,0.36003601 0 0 1 0.0625,0 l 0,-7.53125 a 0.36003601,0.36003601 0 0 1 -0.25,-0.375 l 0,-2.71875 a 0.36003601,0.36003601 0 0 1 -0.15625,0.0312 l -6,0 -0.34375,0 0,-0.34375 0,-11.625 0,-0.34375 0.375,0 81.375,2 0.34375,0 0,0.34375 0,32.71875 3.5625,0.21875 0,-48.3125 a 0.36003601,0.36003601 0 0 1 0.25,-0.375 0.36003601,0.36003601 0 0 1 0.46875,0.375 l 0,48.34375 2.25,0.125 0,-9.4375 -0.65625,0 -0.375,0 0,-0.375 0,-8.96875 0,-0.375 0.375,0 0.65625,0 0,-0.40625 0,-29.5 a 0.36003601,0.36003601 0 0 1 0.25,-0.375 z"
       style="font-size:medium;font-style:normal;font-variant:normal;font-weight:normal;font-stretch:normal;text-indent:0;text-align:start;text-decoration:none;line-height:normal;letter-spacing:normal;word-spacing:normal;text-transform:none;direction:ltr;block-progression:tb;writing-mode:lr-tb;text-anchor:start;baseline-shift:baseline;opacity:0.58687259;color:#000000;fill:#000000;fill-opacity:1;stroke:none;stroke-width:0.72000003;marker:none;visibility:visible;display:inline;overflow:visible;enable-background:accumulate;font-family:Sans;-inkscape-font-specification:Sans" />
  </g>
  <defs
     id="defs7014">
    <marker
       id="CheckToolsAndOPMarker"
       orient="auto"
       refX="-4"
       refY="-1.687441"
       style="overflow:visible">
      <path
         d=" m -4.588864,-1.687441 0.0,0.0 L -9.177728,0.0 c 0.73311,-0.996261 0.728882,-2.359329 0.0,-3.374882"
         style="fill:#000044; fill-rule:evenodd;stroke:none;"
         id="path7017" />
    </marker>
  </defs>
  <defs
     id="defs7019">
    <marker
       id="DrawCurveMarker"
       orient="auto"
       refX="-4"
       refY="-1.687441"
       style="overflow:visible">
      <path
         d="m -4.588864,-1.687441 0.0,0.0 L -9.177728,0.0 c 0.73311,-0.996261 0.728882,-2.359329 0.0,-3.374882"
         style="fill:#000044; fill-rule:evenodd;stroke:none;"
         id="path7022" />
    </marker>
  </defs>
  <defs
     id="defs7024">
    <marker
       id="DrawCurveMarker_r"
       orient="auto"
       refX="4"
       refY="-1.687441"
       style="overflow:visible">
      <path
         d="m 4.588864,-1.687441 0.0,0.0 L 9.177728,0.0 c -0.73311,-0.996261 -0.728882,-2.359329 0.0,-3.374882"
         style="fill:#000044; fill-rule:evenodd;stroke:none;"
         id="path7027" />
    </marker>
  </defs>
  <defs
     id="defs7029">
    <marker
       id="InOutPathMarker"
       orient="auto"
       refX="-4"
       refY="-1.687441"
       style="overflow:visible">
      <path
         d="m -4.588864,-1.687441 0.0,0.0 L -9.177728,0.0 c 0.73311,-0.996261 0.728882,-2.359329 0.0,-3.374882"
         style="fill:#0072a7; fill-rule:evenodd;stroke:none;"
         id="path7123" />
    </marker>
  </defs>
</svg>
